<svg xmlns="http://www.w3.org/2000/svg" viewBox="0 0 500 700">
  <defs>
    <linearGradient id="bg" x1="0" y1="0" x2="0" y2="1">
      <stop offset="0%" stop-color="#0f1627"/>
      <stop offset="100%" stop-color="#090d18"/>
    </linearGradient>
    <radialGradient id="moon" cx="50%" cy="22%" r="45%">
      <stop offset="0%" stop-color="#ffffff" stop-opacity="0.88"/>
      <stop offset="100%" stop-color="#ffffff" stop-opacity="0"/>
    </radialGradient>
    <linearGradient id="gown" x1="0" y1="0" x2="0" y2="1">
      <stop offset="0%" stop-color="#eff4ff" stop-opacity="0.95"/>
      <stop offset="100%" stop-color="#9dc7ff" stop-opacity="0.2"/>
    </linearGradient>
  </defs>
  <rect width="500" height="700" fill="url(#bg)"/>
  <circle cx="250" cy="180" r="125" fill="url(#moon)"/>
  <ellipse cx="250" cy="622" rx="160" ry="28" fill="#000" opacity="0.3"/>
  <path d="M170 535c17-125 30-245 80-245 43 0 67 121 80 245-53 28-136 27-160 0z" fill="url(#gown)"/>
  <circle cx="250" cy="228" r="58" fill="#f8fbff" opacity="0.88"/>
  <path d="M172 228c24-52 65-97 78-97 17 0 59 44 80 97-31-19-50-30-79-30-28 0-49 10-79 30z" fill="#e9f1ff" opacity="0.65"/>
  <path d="M208 225q42-20 84 0" fill="none" stroke="#b8d5ff" stroke-width="5" stroke-linecap="round" opacity="0.7"/>
  <circle cx="229" cy="229" r="4" fill="#7acbff"/>
  <circle cx="271" cy="229" r="4" fill="#7acbff"/>
</svg>
